HIERARCHY
ROOT Hips
{
  OFFSET 3.13124 94.3669 -3.18751
  CHANNELS  6 Xposition Yposition Zposition Zrotation Xrotation Yrotation
  JOINT LeftUpLeg
  {
    OFFSET 8.64259 1.95398 -2.38835
    CHANNELS 3 Zrotation Xrotation Yrotation
    JOINT LeftLeg
    {
      OFFSET 43.7702 0 0
      CHANNELS 3 Zrotation Xrotation Yrotation
      JOINT LeftFoot
      {
        OFFSET 40.6238 0 0
        CHANNELS 3 Zrotation Xrotation Yrotation
        JOINT LeftToeBase
        {
          OFFSET 12.7242 0 0
          CHANNELS 3 Zrotation Xrotation Yrotation
          End Site
          {
            OFFSET 0 0 0
          }
        }
      }
    }
  }
  JOINT RightUpLeg
  {
    OFFSET -8.2249 1.95398 -2.59336
    CHANNELS 3 Zrotation Xrotation Yrotation
    JOINT RightLeg
    {
      OFFSET 43.5653 0 0
      CHANNELS 3 Zrotation Xrotation Yrotation
      JOINT RightFoot
      {
        OFFSET 40.6238 0 0
        CHANNELS 3 Zrotation Xrotation Yrotation
        JOINT RightToeBase
        {
          OFFSET 12.7242 0 0
          CHANNELS 3 Zrotation Xrotation Yrotation
          End Site
          {
            OFFSET 0 0 0
          }
        }
      }
    }
  }
  JOINT Spine
  {
    OFFSET 0.165834 0.87714 6.61349
    CHANNELS 3 Zrotation Xrotation Yrotation
    JOINT Spine1
    {
      OFFSET 7.38962 1.71661e-005 0
      CHANNELS 3 Zrotation Xrotation Yrotation
      JOINT Spine2
      {
        OFFSET 11.9445 1.14441e-005 0
        CHANNELS 3 Zrotation Xrotation Yrotation
        JOINT Spine3
        {
          OFFSET 14.7254 4.19617e-005 0
          CHANNELS 3 Zrotation Xrotation Yrotation
          JOINT Spine4
          {
            OFFSET 10.9679 0 0
            CHANNELS 3 Zrotation Xrotation Yrotation
            JOINT RightShoulder
            {
              OFFSET 2.46616 -1.6653 3.69651
              CHANNELS 3 Zrotation Xrotation Yrotation
              JOINT RightArm
              {
                OFFSET 13.0012 0 0
                CHANNELS 3 Zrotation Xrotation Yrotation
                JOINT RightForeArm
                {
                  OFFSET 28.7848 1.52588e-005 0
                  CHANNELS 3 Zrotation Xrotation Yrotation
                  JOINT RightHand
                  {
                    OFFSET 26.5688 1.52588e-005 0
                    CHANNELS 3 Zrotation Xrotation Yrotation
                    End Site
                    {
                      OFFSET 0 0 0
                    }
                  }
                }
              }
            }
            JOINT LeftShoulder
            {
              OFFSET 2.38034 -1.29275 -3.75231
              CHANNELS 3 Zrotation Xrotation Yrotation
              JOINT LeftArm
              {
                OFFSET 16.3182 6.10352e-005 0
                CHANNELS 3 Zrotation Xrotation Yrotation
                JOINT LeftForeArm
                {
                  OFFSET 27.0901 0 0
                  CHANNELS 3 Zrotation Xrotation Yrotation
                  JOINT LeftHand
                  {
                    OFFSET 24.5451 1.52588e-005 0
                    CHANNELS 3 Zrotation Xrotation Yrotation
                    End Site
                    {
                      OFFSET 0 0 0
                    }
                  }
                }
              }
            }
            JOINT Neck
            {
              OFFSET 5.0226 -0.0266342 0
              CHANNELS 3 Zrotation Xrotation Yrotation
              JOINT Head
              {
                OFFSET 6.69363 2.86102e-005 0
                CHANNELS 3 Zrotation Xrotation Yrotation
                End Site
                {
                  OFFSET 0 0 0
                }
              }
            }
          }
        }
      }
    }
  }
}
MOTION
Frames:	5
Frame Time:	0.0333333
46.939 95.49 33.3451 89.9191 -55.318 90.3825 -173.226 23.2537 97.8983 -20.8731 20.9299 12.5739 43.3576 -0.626701 -1.34589 28.7808 5.23902e-006 4.56415e-006 169.2 12.4719 90.8225 -19.7716 4.60207 -0.494657 70.2957 1.17869 0.501978 28.7808 1.57172e-005 2.85039e-005 -0.11329 10.0014 -91.245 6.85866 -0.752615 -2.23384 -4.81393 -0.850192 -2.19859 -27.3337 -0.04667 -2.3567 -7.32109 -0.0466625 -2.3567 70.298 -54.3803 -127.654 28.0723 11.226 -47.6596 -3.30987 0.00470381 -4.91078 -5.37984 -0.320018 -0.0162341 -91.6153 -33.9708 71.7014 -42.4251 6.09627 -43.0845 13.4129 35.0797 -25.3601 -13.1101 -0.558261 0.609294 -18.8216 -2.98257 -36.1334 -19.8364 -5.18508 7.8082 
49.6143 95.3746 33.1157 89.9463 -59.3455 90.7754 -172.681 23.188 98.6347 -21.9511 23.2251 13.5104 42.2475 -4.37599 -4.61788 28.7808 5.23902e-006 4.56415e-006 169.062 12.345 90.1664 -19.6244 4.01099 -0.743276 70.5275 2.54632 1.16476 28.7808 1.57172e-005 2.85039e-005 -0.214214 10.0833 -91.0757 6.69428 -0.845726 -2.1675 -4.97814 -0.940295 -2.12821 -27.499 -0.15542 -2.32138 -7.48632 -0.155421 -2.3214 70.3291 -53.7119 -127.942 28.2666 9.80349 -48.7565 -3.30999 0.00470409 -4.91078 -5.37984 -0.320018 -0.0162341 -92.2053 -35.3389 71.1286 -41.3765 5.71476 -44.6252 12.6983 33.4781 -25.5304 -11.0012 -0.331517 -1.164 -18.5337 -2.44993 -34.3576 -20.8279 -4.6267 8.22028 
52.5208 95.1913 32.7637 90.1169 -63.8238 91.2655 -172.024 21.7457 99.2238 -23.1763 22.835 13.9426 46.7752 -7.26658 -6.42202 28.7808 5.23902e-006 4.56415e-006 168.996 12.2438 89.5205 -18.8894 4.61443 -0.9896 70.5596 3.61522 1.68457 28.7808 1.57172e-005 2.85039e-005 -0.198232 10.1981 -90.9594 6.46567 -0.767224 -2.0953 -5.20669 -0.858677 -2.05953 -27.7284 -0.102206 -2.22895 -7.71573 -0.102217 -2.22895 70.7686 -53.023 -127.683 28.3887 8.37867 -50.0364 -3.31002 0.00470425 -4.91078 -5.37984 -0.320018 -0.0162341 -92.9124 -36.577 70.3294 -40.1994 5.38876 -46.458 14.8258 35.737 -27.0438 -11.0771 -0.171221 -3.29563 -17.5742 -2.31717 -33.3282 -21.9837 -4.41453 9.18091 
55.6578 94.9962 32.1688 89.0058 -68.3518 90.4166 -171.6 21.0328 99.3867 -25.3052 20.0383 13.6133 52.0824 -9.95529 -7.63984 28.7808 5.23902e-006 4.56415e-006 169.006 13.092 88.6905 -18.0548 5.78759 -1.25151 69.6738 5.02432 2.44585 28.7808 1.57172e-005 2.85039e-005 -0.18524 10.2917 -90.7501 6.28087 -0.635564 -1.96554 -5.39136 -0.721437 -1.93569 -27.9146 -0.0155892 -2.06565 -7.90195 -0.0155958 -2.06565 70.8514 -52.5698 -127.796 28.3225 7.27373 -51.6556 -3.30994 0.00470432 -4.91078 -5.37984 -0.320018 -0.0162341 -93.2968 -37.3142 69.9291 -38.9601 5.19376 -48.6074 14.6968 34.737 -27.1089 -12.0625 0.104594 -6.68105 -16.0727 -2.36912 -33.0925 -23.1638 -4.30269 10.2651 
58.7875 94.9035 31.2784 85.7637 -72.8713 87.2001 -171.084 21.2631 98.7982 -26.8235 15.5798 11.3936 56.1777 -9.30362 -6.59397 28.7808 5.23902e-006 4.56415e-006 169.214 14.2582 87.7541 -15.8568 6.17955 -1.77337 67.4888 5.94531 3.09487 28.7808 1.57172e-005 2.85039e-005 -0.251152 10.3543 -90.2737 6.15579 -0.498167 -1.87959 -5.51639 -0.580409 -1.85585 -28.0406 0.0896343 -1.94239 -8.02798 0.0896245 -1.9424 70.613 -52.1723 -128.325 28.0761 6.66681 -53.3969 -3.30975 0.00470428 -4.91078 -5.37984 -0.320018 -0.0162341 -93.8377 -38.4953 69.4305 -37.5938 4.87463 -50.6346 15.7777 35.9077 -28.1485 -12.3765 0.164418 -7.28288 -14.3591 -2.48217 -32.1762 -24.6737 -4.12245 10.6035 
